%TF.GenerationSoftware,KiCad,Pcbnew,5.0.0*%
%TF.CreationDate,2018-08-31T22:22:52+02:00*%
%TF.ProjectId,cube,637562652E6B696361645F7063620000,B*%
%TF.SameCoordinates,Original*%
%TF.FileFunction,Soldermask,Top*%
%TF.FilePolarity,Negative*%
%FSLAX46Y46*%
G04 Gerber Fmt 4.6, Leading zero omitted, Abs format (unit mm)*
G04 Created by KiCad (PCBNEW 5.0.0) date Fri Aug 31 22:22:52 2018*
%MOMM*%
%LPD*%
G01*
G04 APERTURE LIST*
%ADD10C,0.150000*%
%ADD11O,1.800000X2.700000*%
%ADD12R,0.800000X1.450000*%
%ADD13R,2.500580X2.200860*%
%ADD14C,1.250000*%
%ADD15R,1.300000X1.900000*%
%ADD16R,1.500000X1.200000*%
%ADD17R,1.600000X1.300000*%
%ADD18R,0.900000X1.000000*%
%ADD19R,1.300000X1.600000*%
%ADD20R,1.900000X2.350000*%
%ADD21R,1.000000X0.900000*%
%ADD22R,1.200000X1.200000*%
%ADD23O,2.100000X2.100000*%
%ADD24R,2.100000X2.100000*%
%ADD25R,1.200000X2.300000*%
%ADD26O,2.200000X2.200000*%
%ADD27R,2.200000X2.200000*%
%ADD28R,2.900000X1.400000*%
%ADD29R,1.400000X2.200000*%
%ADD30R,2.075000X2.075000*%
%ADD31O,1.250000X0.700000*%
%ADD32O,0.700000X1.250000*%
%ADD33O,2.000000X2.000000*%
%ADD34R,2.000000X2.000000*%
%ADD35R,1.900000X2.400000*%
%ADD36R,4.200000X2.400000*%
%ADD37R,2.300000X1.200000*%
%ADD38O,1.250000X1.250000*%
%ADD39R,1.250000X1.250000*%
%ADD40C,0.900000*%
G04 APERTURE END LIST*
D10*
X116300000Y-64400000D02*
G75*
G02X116900000Y-65000000I0J-600000D01*
G01*
X116900000Y-151700000D02*
X116900000Y-65000000D01*
X116900000Y-151700000D02*
G75*
G02X116300000Y-152300000I-600000J0D01*
G01*
X58000000Y-64400000D02*
X116300000Y-64400000D01*
X57400000Y-65000000D02*
G75*
G02X58000000Y-64400000I600000J0D01*
G01*
X58000000Y-152300000D02*
G75*
G02X57400000Y-151700000I0J600000D01*
G01*
X76450000Y-152300000D02*
X58000000Y-152300000D01*
X84900000Y-152300000D02*
X116300000Y-152300000D01*
X57400000Y-151700000D02*
X57400000Y-65000000D01*
X84275000Y-148300000D02*
X84275000Y-151700000D01*
X84875000Y-152300000D02*
G75*
G02X84275000Y-151700000I0J600000D01*
G01*
X83675000Y-147700000D02*
G75*
G02X84275000Y-148300000I0J-600000D01*
G01*
X77675000Y-147700000D02*
X83675000Y-147700000D01*
X77075000Y-148300000D02*
G75*
G02X77675000Y-147700000I600000J0D01*
G01*
X77075000Y-151700000D02*
G75*
G02X76475000Y-152300000I-600000J0D01*
G01*
X77075000Y-148300000D02*
X77075000Y-151700000D01*
D11*
X75825000Y-147100000D03*
D12*
X79375000Y-146875000D03*
X80025000Y-146875000D03*
X80675000Y-146875000D03*
X81325000Y-146875000D03*
X81975000Y-146875000D03*
D11*
X75825000Y-150400000D03*
X85525000Y-150400000D03*
X85525000Y-147100000D03*
D13*
X65874640Y-145125000D03*
X61475360Y-145125000D03*
D14*
X62200000Y-150400000D03*
D15*
X61450000Y-148550000D03*
X64350000Y-148550000D03*
X65850000Y-148550000D03*
D16*
X67200000Y-149050000D03*
X67200000Y-151750000D03*
X60100000Y-151750000D03*
X60100000Y-149050000D03*
D14*
X65100000Y-150400000D03*
D17*
X106700000Y-125900000D03*
X108900000Y-125900000D03*
X98500000Y-125900000D03*
X100700000Y-125900000D03*
D18*
X75900000Y-83500000D03*
X75900000Y-84600000D03*
D19*
X113800000Y-139100000D03*
X113800000Y-136900000D03*
D18*
X95800000Y-83500000D03*
X95800000Y-84600000D03*
D19*
X94850000Y-89300000D03*
X94850000Y-87100000D03*
X115400000Y-139100000D03*
X115400000Y-136900000D03*
D17*
X102600000Y-125900000D03*
X104800000Y-125900000D03*
D18*
X113775000Y-84600000D03*
X113775000Y-83500000D03*
X113450000Y-145050000D03*
X113450000Y-146150000D03*
D20*
X114200000Y-129575000D03*
X114200000Y-126825000D03*
D18*
X59500000Y-144550000D03*
X59500000Y-145650000D03*
D20*
X68675000Y-135550000D03*
X68675000Y-138300000D03*
D18*
X79075000Y-137650000D03*
X79075000Y-136550000D03*
D21*
X76825000Y-136500000D03*
X77925000Y-136500000D03*
X77925000Y-137700000D03*
X76825000Y-137700000D03*
X75725000Y-138800000D03*
X76825000Y-138800000D03*
X76825000Y-140000000D03*
X75725000Y-140000000D03*
D18*
X74750000Y-84600000D03*
X74750000Y-83500000D03*
X94650000Y-84600000D03*
X94650000Y-83500000D03*
X114900000Y-83500000D03*
X114900000Y-84600000D03*
D22*
X68675000Y-142425000D03*
X70275000Y-142425000D03*
D23*
X72450000Y-147960000D03*
D24*
X72450000Y-150500000D03*
D23*
X60400000Y-105100000D03*
X60400000Y-102560000D03*
X60400000Y-100020000D03*
X60400000Y-97480000D03*
X60400000Y-94940000D03*
X60400000Y-92400000D03*
X60400000Y-89860000D03*
X60400000Y-87320000D03*
X60400000Y-84780000D03*
X60400000Y-82240000D03*
X60400000Y-79700000D03*
X60400000Y-77160000D03*
X60400000Y-74620000D03*
X60400000Y-72080000D03*
X60400000Y-69540000D03*
D24*
X60400000Y-67000000D03*
X80300000Y-67000000D03*
D23*
X80300000Y-69540000D03*
X80300000Y-72080000D03*
X80300000Y-74620000D03*
X80300000Y-77160000D03*
X80300000Y-79700000D03*
X80300000Y-82240000D03*
X80300000Y-84780000D03*
X80300000Y-87320000D03*
X80300000Y-89860000D03*
X80300000Y-92400000D03*
X80300000Y-94940000D03*
X80300000Y-97480000D03*
X80300000Y-100020000D03*
X80300000Y-102560000D03*
X80300000Y-105100000D03*
X99450000Y-105100000D03*
X99450000Y-102560000D03*
X99450000Y-100020000D03*
X99450000Y-97480000D03*
X99450000Y-94940000D03*
X99450000Y-92400000D03*
X99450000Y-89860000D03*
X99450000Y-87320000D03*
X99450000Y-84780000D03*
X99450000Y-82240000D03*
X99450000Y-79700000D03*
X99450000Y-77160000D03*
X99450000Y-74620000D03*
X99450000Y-72080000D03*
X99450000Y-69540000D03*
D24*
X99450000Y-67000000D03*
D23*
X60350000Y-124920000D03*
X60350000Y-122380000D03*
X60350000Y-119840000D03*
D24*
X60350000Y-117300000D03*
D25*
X87775000Y-138950000D03*
X88725000Y-141950000D03*
X86825000Y-141950000D03*
X92575000Y-140600000D03*
X90675000Y-140600000D03*
X91625000Y-143600000D03*
D26*
X88100000Y-116980000D03*
X88100000Y-114440000D03*
D27*
X88100000Y-111900000D03*
X70600000Y-117000000D03*
D26*
X70600000Y-114460000D03*
X70600000Y-111920000D03*
D27*
X88100000Y-125300000D03*
D26*
X88100000Y-127840000D03*
X88100000Y-130380000D03*
X70600000Y-125320000D03*
X70600000Y-127860000D03*
D27*
X70600000Y-130400000D03*
D17*
X70575000Y-140725000D03*
X68375000Y-140725000D03*
D19*
X85125000Y-138750000D03*
X85125000Y-140950000D03*
D17*
X86675000Y-144050000D03*
X88875000Y-144050000D03*
X92675000Y-138450000D03*
X90475000Y-138450000D03*
D19*
X74950000Y-87100000D03*
X74950000Y-89300000D03*
X83700000Y-114800000D03*
X83700000Y-117000000D03*
X114000000Y-87100000D03*
X114000000Y-89300000D03*
X80700000Y-114800000D03*
X80700000Y-117000000D03*
X78000000Y-111900000D03*
X78000000Y-114100000D03*
X75000000Y-111900000D03*
X75000000Y-114100000D03*
X76275000Y-143700000D03*
X76275000Y-141500000D03*
D28*
X96100000Y-143550000D03*
X96100000Y-141550000D03*
X96100000Y-139550000D03*
X96100000Y-137550000D03*
X96100000Y-135550000D03*
X96100000Y-133550000D03*
X96100000Y-131550000D03*
X96100000Y-129550000D03*
D29*
X98700000Y-128050000D03*
X100700000Y-128050000D03*
X102700000Y-128050000D03*
X104700000Y-128050000D03*
X106700000Y-128050000D03*
X108700000Y-128050000D03*
D28*
X111300000Y-129550000D03*
X111300000Y-131550000D03*
X111300000Y-133550000D03*
X111300000Y-135550000D03*
X111300000Y-137550000D03*
X111300000Y-139550000D03*
X111300000Y-141550000D03*
X111300000Y-143550000D03*
D30*
X81475000Y-140625000D03*
X79800000Y-140625000D03*
X81475000Y-142300000D03*
X79800000Y-142300000D03*
D31*
X83087500Y-139962500D03*
X83087500Y-140462500D03*
X83087500Y-140962500D03*
X83087500Y-141462500D03*
X83087500Y-141962500D03*
X83087500Y-142462500D03*
X83087500Y-142962500D03*
D32*
X82137500Y-143912500D03*
X81637500Y-143912500D03*
X81137500Y-143912500D03*
X80637500Y-143912500D03*
X80137500Y-143912500D03*
X79637500Y-143912500D03*
X79137500Y-143912500D03*
D31*
X78187500Y-142962500D03*
X78187500Y-142462500D03*
X78187500Y-141962500D03*
X78187500Y-141462500D03*
X78187500Y-140962500D03*
X78187500Y-140462500D03*
X78187500Y-139962500D03*
D32*
X79137500Y-139012500D03*
X79637500Y-139012500D03*
X80137500Y-139012500D03*
X80637500Y-139012500D03*
X81137500Y-139012500D03*
X81637500Y-139012500D03*
X82137500Y-139012500D03*
D33*
X72620000Y-66800000D03*
X65000000Y-99820000D03*
X72620000Y-69340000D03*
X65000000Y-97280000D03*
X72620000Y-71880000D03*
X65000000Y-94740000D03*
X72620000Y-74420000D03*
X65000000Y-92200000D03*
X72620000Y-76960000D03*
X65000000Y-89660000D03*
X72620000Y-79500000D03*
X65000000Y-87120000D03*
X72620000Y-82040000D03*
X65000000Y-84580000D03*
X72620000Y-84580000D03*
X65000000Y-82040000D03*
X72620000Y-87120000D03*
X65000000Y-79500000D03*
X72620000Y-89660000D03*
X65000000Y-76960000D03*
X72620000Y-92200000D03*
X65000000Y-74420000D03*
X72620000Y-94740000D03*
X65000000Y-71880000D03*
X72620000Y-97280000D03*
X65000000Y-69340000D03*
X72620000Y-99820000D03*
D34*
X65000000Y-66800000D03*
X84900000Y-66800000D03*
D33*
X92520000Y-99820000D03*
X84900000Y-69340000D03*
X92520000Y-97280000D03*
X84900000Y-71880000D03*
X92520000Y-94740000D03*
X84900000Y-74420000D03*
X92520000Y-92200000D03*
X84900000Y-76960000D03*
X92520000Y-89660000D03*
X84900000Y-79500000D03*
X92520000Y-87120000D03*
X84900000Y-82040000D03*
X92520000Y-84580000D03*
X84900000Y-84580000D03*
X92520000Y-82040000D03*
X84900000Y-87120000D03*
X92520000Y-79500000D03*
X84900000Y-89660000D03*
X92520000Y-76960000D03*
X84900000Y-92200000D03*
X92520000Y-74420000D03*
X84900000Y-94740000D03*
X92520000Y-71880000D03*
X84900000Y-97280000D03*
X92520000Y-69340000D03*
X84900000Y-99820000D03*
X92520000Y-66800000D03*
X111670000Y-66800000D03*
X104050000Y-99820000D03*
X111670000Y-69340000D03*
X104050000Y-97280000D03*
X111670000Y-71880000D03*
X104050000Y-94740000D03*
X111670000Y-74420000D03*
X104050000Y-92200000D03*
X111670000Y-76960000D03*
X104050000Y-89660000D03*
X111670000Y-79500000D03*
X104050000Y-87120000D03*
X111670000Y-82040000D03*
X104050000Y-84580000D03*
X111670000Y-84580000D03*
X104050000Y-82040000D03*
X111670000Y-87120000D03*
X104050000Y-79500000D03*
X111670000Y-89660000D03*
X104050000Y-76960000D03*
X111670000Y-92200000D03*
X104050000Y-74420000D03*
X111670000Y-94740000D03*
X104050000Y-71880000D03*
X111670000Y-97280000D03*
X104050000Y-69340000D03*
X111670000Y-99820000D03*
D34*
X104050000Y-66800000D03*
D35*
X61275000Y-141675000D03*
X65875000Y-141675000D03*
X63575000Y-141675000D03*
D36*
X63575000Y-135375000D03*
D37*
X83700000Y-111900000D03*
X80700000Y-112850000D03*
X80700000Y-110950000D03*
X78000000Y-117950000D03*
X78000000Y-116050000D03*
X75000000Y-117000000D03*
X83700000Y-125300000D03*
X80700000Y-126250000D03*
X80700000Y-124350000D03*
X78000000Y-131350000D03*
X78000000Y-129450000D03*
X75000000Y-130400000D03*
D19*
X80700000Y-130400000D03*
X80700000Y-128200000D03*
X83700000Y-128200000D03*
X83700000Y-130400000D03*
X78000000Y-125300000D03*
X78000000Y-127500000D03*
X75000000Y-127500000D03*
X75000000Y-125300000D03*
D38*
X114200000Y-143500000D03*
D39*
X114200000Y-142500000D03*
D40*
X58400000Y-148400000D03*
X58400000Y-136700000D03*
M02*
