M48
;DRILL file {KiCad 5.0.0} date Fri Aug 31 22:22:45 2018
;FORMAT={-:-/ absolute / inch / decimal}
FMAT,2
INCH,TZ
T1C0.0118
T2C0.0197
T3C0.0315
T4C0.0394
%
G90
G05
M72
T1
X2.31Y-5.58
X2.3425Y-5.6535
X2.4124Y-5.5778
X2.685Y-5.7126
X2.9567Y-5.6575
X3.0246Y-5.5118
X3.0709Y-4.6929
X3.1132Y-5.376
X3.1298Y-5.7372
X3.1535Y-5.7136
X3.1614Y-5.3809
X3.1772Y-4.315
X3.1772Y-4.8476
X3.1851Y-5.4045
X3.2756Y-5.7283
X3.2992Y-5.3976
X3.3028Y-5.4997
X3.3051Y-5.5694
X3.3642Y-5.6732
X3.4209Y-5.415
X3.6575Y-5.6555
X3.7087Y-5.5728
X3.7087Y-5.6516
X3.7323Y-4.2677
X3.9646Y-5.0413
X4.0433Y-5.0413
X4.122Y-5.0413
X4.1291Y-4.0585
X4.1614Y-4.0591
X4.1722Y-4.7717
X4.1722Y-4.8031
X4.1722Y-4.8346
X4.1722Y-4.8661
X4.2008Y-5.0413
X4.2795Y-5.0413
X4.3858Y-5.4134
X4.4547Y-5.1791
X4.4547Y-5.2579
X4.4547Y-5.3366
T2
X4.4961Y-5.6102
X4.4961Y-5.6496
T3
X4.0965Y-2.6299
X4.0965Y-2.7299
X4.0965Y-2.8299
X4.0965Y-2.9299
X4.0965Y-3.0299
X4.0965Y-3.1299
X4.0965Y-3.2299
X4.0965Y-3.3299
X4.0965Y-3.4299
X4.0965Y-3.5299
X4.0965Y-3.6299
X4.0965Y-3.7299
X4.0965Y-3.8299
X4.0965Y-3.9299
X4.3965Y-2.6299
X4.3965Y-2.7299
X4.3965Y-2.8299
X4.3965Y-2.9299
X4.3965Y-3.0299
X4.3965Y-3.1299
X4.3965Y-3.2299
X4.3965Y-3.3299
X4.3965Y-3.4299
X4.3965Y-3.5299
X4.3965Y-3.6299
X4.3965Y-3.7299
X4.3965Y-3.8299
X4.3965Y-3.9299
X3.3425Y-2.6299
X3.3425Y-2.7299
X3.3425Y-2.8299
X3.3425Y-2.9299
X3.3425Y-3.0299
X3.3425Y-3.1299
X3.3425Y-3.2299
X3.3425Y-3.3299
X3.3425Y-3.4299
X3.3425Y-3.5299
X3.3425Y-3.6299
X3.3425Y-3.7299
X3.3425Y-3.8299
X3.3425Y-3.9299
X3.6425Y-2.6299
X3.6425Y-2.7299
X3.6425Y-2.8299
X3.6425Y-2.9299
X3.6425Y-3.0299
X3.6425Y-3.1299
X3.6425Y-3.2299
X3.6425Y-3.3299
X3.6425Y-3.4299
X3.6425Y-3.5299
X3.6425Y-3.6299
X3.6425Y-3.7299
X3.6425Y-3.8299
X3.6425Y-3.9299
X2.5591Y-2.6299
X2.5591Y-2.7299
X2.5591Y-2.8299
X2.5591Y-2.9299
X2.5591Y-3.0299
X2.5591Y-3.1299
X2.5591Y-3.2299
X2.5591Y-3.3299
X2.5591Y-3.4299
X2.5591Y-3.5299
X2.5591Y-3.6299
X2.5591Y-3.7299
X2.5591Y-3.8299
X2.5591Y-3.9299
X2.8591Y-2.6299
X2.8591Y-2.7299
X2.8591Y-2.8299
X2.8591Y-2.9299
X2.8591Y-3.0299
X2.8591Y-3.1299
X2.8591Y-3.2299
X2.8591Y-3.3299
X2.8591Y-3.4299
X2.8591Y-3.5299
X2.8591Y-3.6299
X2.8591Y-3.7299
X2.8591Y-3.8299
X2.8591Y-3.9299
T4
X2.7795Y-4.9339
X2.7795Y-5.0339
X2.7795Y-5.1339
X3.4685Y-4.4055
X3.4685Y-4.5055
X3.4685Y-4.6055
X3.9154Y-2.6378
X3.9154Y-2.7378
X3.9154Y-2.8378
X3.9154Y-2.9378
X3.9154Y-3.0378
X3.9154Y-3.1378
X3.9154Y-3.2378
X3.9154Y-3.3378
X3.9154Y-3.4378
X3.9154Y-3.5378
X3.9154Y-3.6378
X3.9154Y-3.7378
X3.9154Y-3.8378
X3.9154Y-3.9378
X3.9154Y-4.0378
X3.9154Y-4.1378
X3.1614Y-2.6378
X3.1614Y-2.7378
X3.1614Y-2.8378
X3.1614Y-2.9378
X3.1614Y-3.0378
X3.1614Y-3.1378
X3.1614Y-3.2378
X3.1614Y-3.3378
X3.1614Y-3.4378
X3.1614Y-3.5378
X3.1614Y-3.6378
X3.1614Y-3.7378
X3.1614Y-3.8378
X3.1614Y-3.9378
X3.1614Y-4.0378
X3.1614Y-4.1378
X2.378Y-2.6378
X2.378Y-2.7378
X2.378Y-2.8378
X2.378Y-2.9378
X2.378Y-3.0378
X2.378Y-3.1378
X2.378Y-3.2378
X2.378Y-3.3378
X2.378Y-3.4378
X2.378Y-3.5378
X2.378Y-3.6378
X2.378Y-3.7378
X2.378Y-3.8378
X2.378Y-3.9378
X2.378Y-4.0378
X2.378Y-4.1378
X2.8524Y-5.8252
X2.8524Y-5.9252
X2.376Y-4.6181
X2.376Y-4.7181
X2.376Y-4.8181
X2.376Y-4.9181
X2.7795Y-4.4063
X2.7795Y-4.5063
X2.7795Y-4.6063
X3.4685Y-4.9331
X3.4685Y-5.0331
X3.4685Y-5.1331
T3
X2.9852Y-5.7736G85X2.9852Y-5.8091
G05
X2.9852Y-5.9035G85X2.9852Y-5.939
G05
X3.3671Y-5.7736G85X3.3671Y-5.8091
G05
X3.3671Y-5.9035G85X3.3671Y-5.939
G05
T0
M30
