M48
INCH,TZ
T1C0.0118
T2C0.0197
T3C0.0315
T4C0.0394
%
G90
G05
T1
X23100Y-55800
X23425Y-56535
X24124Y-55778
X26850Y-57126
X29567Y-56575
X30246Y-55118
X30709Y-46929
X31132Y-53760
X31298Y-57372
X31535Y-57136
X31614Y-53809
X31772Y-43150
X31772Y-48476
X31851Y-54045
X32756Y-57283
X32992Y-53976
X33028Y-54997
X33051Y-55694
X33642Y-56732
X34209Y-54150
X36575Y-56555
X37087Y-55728
X37087Y-56516
X37323Y-42677
X39646Y-50413
X40433Y-50413
X41220Y-50413
X41291Y-40585
X41614Y-40591
X41722Y-47717
X41722Y-48031
X41722Y-48346
X41722Y-48661
X42008Y-50413
X42795Y-50413
X43858Y-54134
X44547Y-51791
X44547Y-52579
X44547Y-53366
T2
X44961Y-56102
X44961Y-56496
T3
X40965Y-26299
X40965Y-27299
X40965Y-28299
X40965Y-29299
X40965Y-30299
X40965Y-31299
X40965Y-32299
X40965Y-33299
X40965Y-34299
X40965Y-35299
X40965Y-36299
X40965Y-37299
X40965Y-38299
X40965Y-39299
X43965Y-26299
X43965Y-27299
X43965Y-28299
X43965Y-29299
X43965Y-30299
X43965Y-31299
X43965Y-32299
X43965Y-33299
X43965Y-34299
X43965Y-35299
X43965Y-36299
X43965Y-37299
X43965Y-38299
X43965Y-39299
X33425Y-26299
X33425Y-27299
X33425Y-28299
X33425Y-29299
X33425Y-30299
X33425Y-31299
X33425Y-32299
X33425Y-33299
X33425Y-34299
X33425Y-35299
X33425Y-36299
X33425Y-37299
X33425Y-38299
X33425Y-39299
X36425Y-26299
X36425Y-27299
X36425Y-28299
X36425Y-29299
X36425Y-30299
X36425Y-31299
X36425Y-32299
X36425Y-33299
X36425Y-34299
X36425Y-35299
X36425Y-36299
X36425Y-37299
X36425Y-38299
X36425Y-39299
X25591Y-26299
X25591Y-27299
X25591Y-28299
X25591Y-29299
X25591Y-30299
X25591Y-31299
X25591Y-32299
X25591Y-33299
X25591Y-34299
X25591Y-35299
X25591Y-36299
X25591Y-37299
X25591Y-38299
X25591Y-39299
X28591Y-26299
X28591Y-27299
X28591Y-28299
X28591Y-29299
X28591Y-30299
X28591Y-31299
X28591Y-32299
X28591Y-33299
X28591Y-34299
X28591Y-35299
X28591Y-36299
X28591Y-37299
X28591Y-38299
X28591Y-39299
T4
X27795Y-49339
X27795Y-50339
X27795Y-51339
X34685Y-44055
X34685Y-45055
X34685Y-46055
X39154Y-26378
X39154Y-27378
X39154Y-28378
X39154Y-29378
X39154Y-30378
X39154Y-31378
X39154Y-32378
X39154Y-33378
X39154Y-34378
X39154Y-35378
X39154Y-36378
X39154Y-37378
X39154Y-38378
X39154Y-39378
X39154Y-40378
X39154Y-41378
X31614Y-26378
X31614Y-27378
X31614Y-28378
X31614Y-29378
X31614Y-30378
X31614Y-31378
X31614Y-32378
X31614Y-33378
X31614Y-34378
X31614Y-35378
X31614Y-36378
X31614Y-37378
X31614Y-38378
X31614Y-39378
X31614Y-40378
X31614Y-41378
X23780Y-26378
X23780Y-27378
X23780Y-28378
X23780Y-29378
X23780Y-30378
X23780Y-31378
X23780Y-32378
X23780Y-33378
X23780Y-34378
X23780Y-35378
X23780Y-36378
X23780Y-37378
X23780Y-38378
X23780Y-39378
X23780Y-40378
X23780Y-41378
X28524Y-58252
X28524Y-59252
X23760Y-46181
X23760Y-47181
X23760Y-48181
X23760Y-49181
X27795Y-44063
X27795Y-45063
X27795Y-46063
X34685Y-49331
X34685Y-50331
X34685Y-51331
T3
X29852Y-57736G85X29852Y-58091
G05
X29852Y-59035G85X29852Y-59390
G05
X33671Y-57736G85X33671Y-58091
G05
X33671Y-59035G85X33671Y-59390
G05
T0
M30
