G04 #@! TF.GenerationSoftware,KiCad,Pcbnew,5.0.0*
G04 #@! TF.CreationDate,2018-08-31T22:25:39+02:00*
G04 #@! TF.ProjectId,cube,637562652E6B696361645F7063620000,B*
G04 #@! TF.SameCoordinates,Original*
G04 #@! TF.FileFunction,Paste,Top*
G04 #@! TF.FilePolarity,Positive*
%FSLAX46Y46*%
G04 Gerber Fmt 4.6, Leading zero omitted, Abs format (unit mm)*
G04 Created by KiCad (PCBNEW 5.0.0) date Fri Aug 31 22:25:39 2018*
%MOMM*%
%LPD*%
G01*
G04 APERTURE LIST*
%ADD10R,0.400000X1.050000*%
%ADD11R,2.100580X1.800860*%
%ADD12R,0.900000X1.500000*%
%ADD13R,1.200000X0.900000*%
%ADD14R,0.500000X0.600000*%
%ADD15R,0.900000X1.200000*%
%ADD16R,1.500000X1.950000*%
%ADD17R,0.600000X0.500000*%
%ADD18R,0.800000X0.800000*%
%ADD19R,0.800000X1.900000*%
%ADD20R,2.500000X1.000000*%
%ADD21R,1.000000X1.800000*%
%ADD22R,1.005000X1.005000*%
%ADD23O,0.850000X0.300000*%
%ADD24O,0.300000X0.850000*%
%ADD25R,1.500000X2.000000*%
%ADD26R,3.800000X2.000000*%
%ADD27R,1.900000X0.800000*%
G04 APERTURE END LIST*
D10*
G04 #@! TO.C,J2*
X79375000Y-146875000D03*
X80025000Y-146875000D03*
X80675000Y-146875000D03*
X81975000Y-146875000D03*
G04 #@! TD*
D11*
G04 #@! TO.C,D1*
X65874640Y-145125000D03*
X61475360Y-145125000D03*
G04 #@! TD*
D12*
G04 #@! TO.C,SW1*
X61450000Y-148550000D03*
X64350000Y-148550000D03*
X65850000Y-148550000D03*
G04 #@! TD*
D13*
G04 #@! TO.C,R1*
X106700000Y-125900000D03*
X108900000Y-125900000D03*
G04 #@! TD*
G04 #@! TO.C,R2*
X98500000Y-125900000D03*
X100700000Y-125900000D03*
G04 #@! TD*
D14*
G04 #@! TO.C,C10*
X75900000Y-83500000D03*
X75900000Y-84600000D03*
G04 #@! TD*
D15*
G04 #@! TO.C,R5*
X113800000Y-139100000D03*
X113800000Y-136900000D03*
G04 #@! TD*
D14*
G04 #@! TO.C,C12*
X95800000Y-83500000D03*
X95800000Y-84600000D03*
G04 #@! TD*
D15*
G04 #@! TO.C,R11*
X94850000Y-89300000D03*
X94850000Y-87100000D03*
G04 #@! TD*
G04 #@! TO.C,R4*
X115400000Y-139100000D03*
X115400000Y-136900000D03*
G04 #@! TD*
D13*
G04 #@! TO.C,R3*
X102600000Y-125900000D03*
X104800000Y-125900000D03*
G04 #@! TD*
D14*
G04 #@! TO.C,C15*
X113775000Y-84600000D03*
X113775000Y-83500000D03*
G04 #@! TD*
G04 #@! TO.C,C1*
X113450000Y-145050000D03*
X113450000Y-146150000D03*
G04 #@! TD*
D16*
G04 #@! TO.C,C2*
X114200000Y-129575000D03*
X114200000Y-126825000D03*
G04 #@! TD*
D14*
G04 #@! TO.C,C3*
X59500000Y-144550000D03*
X59500000Y-145650000D03*
G04 #@! TD*
D16*
G04 #@! TO.C,C4*
X68675000Y-135550000D03*
X68675000Y-138300000D03*
G04 #@! TD*
D14*
G04 #@! TO.C,C5*
X79075000Y-137650000D03*
X79075000Y-136550000D03*
G04 #@! TD*
D17*
G04 #@! TO.C,C6*
X76825000Y-136500000D03*
X77925000Y-136500000D03*
G04 #@! TD*
G04 #@! TO.C,C7*
X77925000Y-137700000D03*
X76825000Y-137700000D03*
G04 #@! TD*
G04 #@! TO.C,C8*
X75725000Y-138800000D03*
X76825000Y-138800000D03*
G04 #@! TD*
G04 #@! TO.C,C9*
X76825000Y-140000000D03*
X75725000Y-140000000D03*
G04 #@! TD*
D14*
G04 #@! TO.C,C11*
X74750000Y-84600000D03*
X74750000Y-83500000D03*
G04 #@! TD*
G04 #@! TO.C,C13*
X94650000Y-84600000D03*
X94650000Y-83500000D03*
G04 #@! TD*
G04 #@! TO.C,C14*
X114900000Y-83500000D03*
X114900000Y-84600000D03*
G04 #@! TD*
D18*
G04 #@! TO.C,D2*
X68675000Y-142425000D03*
X70275000Y-142425000D03*
G04 #@! TD*
D19*
G04 #@! TO.C,Q1*
X87775000Y-138950000D03*
X88725000Y-141950000D03*
X86825000Y-141950000D03*
G04 #@! TD*
G04 #@! TO.C,Q2*
X92575000Y-140600000D03*
X90675000Y-140600000D03*
X91625000Y-143600000D03*
G04 #@! TD*
D13*
G04 #@! TO.C,R6*
X70575000Y-140725000D03*
X68375000Y-140725000D03*
G04 #@! TD*
D15*
G04 #@! TO.C,R7*
X85125000Y-138750000D03*
X85125000Y-140950000D03*
G04 #@! TD*
D13*
G04 #@! TO.C,R8*
X86675000Y-144050000D03*
X88875000Y-144050000D03*
G04 #@! TD*
G04 #@! TO.C,R9*
X92675000Y-138450000D03*
X90475000Y-138450000D03*
G04 #@! TD*
D15*
G04 #@! TO.C,R10*
X74950000Y-87100000D03*
X74950000Y-89300000D03*
G04 #@! TD*
G04 #@! TO.C,R12*
X83700000Y-114800000D03*
X83700000Y-117000000D03*
G04 #@! TD*
G04 #@! TO.C,R13*
X114000000Y-87100000D03*
X114000000Y-89300000D03*
G04 #@! TD*
G04 #@! TO.C,R14*
X80700000Y-114800000D03*
X80700000Y-117000000D03*
G04 #@! TD*
G04 #@! TO.C,R15*
X78000000Y-111900000D03*
X78000000Y-114100000D03*
G04 #@! TD*
G04 #@! TO.C,R16*
X75000000Y-111900000D03*
X75000000Y-114100000D03*
G04 #@! TD*
G04 #@! TO.C,R17*
X76275000Y-143700000D03*
X76275000Y-141500000D03*
G04 #@! TD*
D20*
G04 #@! TO.C,U1*
X96100000Y-143550000D03*
X96100000Y-141550000D03*
X96100000Y-139550000D03*
X96100000Y-137550000D03*
X96100000Y-135550000D03*
X96100000Y-133550000D03*
X96100000Y-131550000D03*
X96100000Y-129550000D03*
D21*
X98700000Y-128050000D03*
X100700000Y-128050000D03*
X102700000Y-128050000D03*
X104700000Y-128050000D03*
X106700000Y-128050000D03*
X108700000Y-128050000D03*
D20*
X111300000Y-129550000D03*
X111300000Y-131550000D03*
X111300000Y-133550000D03*
X111300000Y-135550000D03*
X111300000Y-137550000D03*
X111300000Y-139550000D03*
X111300000Y-141550000D03*
X111300000Y-143550000D03*
G04 #@! TD*
D22*
G04 #@! TO.C,U2*
X81475000Y-140625000D03*
X79800000Y-140625000D03*
X81475000Y-142300000D03*
X79800000Y-142300000D03*
D23*
X83087500Y-139962500D03*
X83087500Y-140462500D03*
X83087500Y-140962500D03*
X83087500Y-141462500D03*
X83087500Y-141962500D03*
X83087500Y-142462500D03*
X83087500Y-142962500D03*
D24*
X82137500Y-143912500D03*
X81637500Y-143912500D03*
X81137500Y-143912500D03*
X80637500Y-143912500D03*
X80137500Y-143912500D03*
X79637500Y-143912500D03*
X79137500Y-143912500D03*
D23*
X78187500Y-142962500D03*
X78187500Y-142462500D03*
X78187500Y-141962500D03*
X78187500Y-141462500D03*
X78187500Y-140962500D03*
X78187500Y-140462500D03*
X78187500Y-139962500D03*
D24*
X79137500Y-139012500D03*
X79637500Y-139012500D03*
X80137500Y-139012500D03*
X80637500Y-139012500D03*
X81137500Y-139012500D03*
X81637500Y-139012500D03*
X82137500Y-139012500D03*
G04 #@! TD*
D25*
G04 #@! TO.C,U7*
X61275000Y-141675000D03*
X65875000Y-141675000D03*
X63575000Y-141675000D03*
D26*
X63575000Y-135375000D03*
G04 #@! TD*
D27*
G04 #@! TO.C,Q7*
X83700000Y-111900000D03*
X80700000Y-112850000D03*
X80700000Y-110950000D03*
G04 #@! TD*
G04 #@! TO.C,Q8*
X78000000Y-117950000D03*
X78000000Y-116050000D03*
X75000000Y-117000000D03*
G04 #@! TD*
G04 #@! TO.C,Q9*
X83700000Y-125300000D03*
X80700000Y-126250000D03*
X80700000Y-124350000D03*
G04 #@! TD*
G04 #@! TO.C,Q10*
X78000000Y-131350000D03*
X78000000Y-129450000D03*
X75000000Y-130400000D03*
G04 #@! TD*
D15*
G04 #@! TO.C,R18*
X80700000Y-130400000D03*
X80700000Y-128200000D03*
G04 #@! TD*
G04 #@! TO.C,R19*
X83700000Y-128200000D03*
X83700000Y-130400000D03*
G04 #@! TD*
G04 #@! TO.C,R20*
X78000000Y-125300000D03*
X78000000Y-127500000D03*
G04 #@! TD*
G04 #@! TO.C,R21*
X75000000Y-127500000D03*
X75000000Y-125300000D03*
G04 #@! TD*
M02*
